<svg width="1776" height="516" viewBox="0 0 1776 516" fill="none" xmlns="http://www.w3.org/2000/svg">
<ellipse cx="283.577" cy="237.133" rx="283.577" ry="205.082" fill="url(#paint0_radial_0_52)"/>
<circle cx="1518.39" cy="257.612" r="257.612" fill="url(#paint1_radial_0_52)"/>
<g clip-path="url(#clip0_0_52)">
<rect x="254.981" y="77.5544" width="1302.42" height="224.072" rx="25" fill="#E6EFF6"/>
<circle cx="395.953" cy="255.867" r="62.7048" transform="rotate(142.769 395.953 255.867)" fill="url(#paint2_linear_0_52)" fill-opacity="0.3"/>
<circle cx="689.329" cy="112.045" r="81.5333" transform="rotate(-150.942 689.329 112.045)" fill="url(#paint3_linear_0_52)" fill-opacity="0.35"/>
<circle cx="284.671" cy="217.758" r="87.8849" transform="rotate(78.9943 284.671 217.758)" fill="url(#paint4_linear_0_52)" fill-opacity="0.3"/>
<circle cx="1324.95" cy="125.657" r="71.3396" transform="rotate(-58.2951 1324.95 125.657)" fill="url(#paint5_linear_0_52)" fill-opacity="0.28"/>
<circle cx="1450.66" cy="140.012" r="108.254" transform="rotate(-22.1 1450.66 140.012)" fill="url(#paint6_linear_0_52)" fill-opacity="0.28"/>
<circle cx="831.919" cy="168.633" r="12.9744" transform="rotate(-8.8439 831.919 168.633)" stroke="#CDEBF7"/>
</g>
<defs>
<radialGradient id="paint0_radial_0_52" cx="0" cy="0" r="1" gradientUnits="userSpaceOnUse" gradientTransform="translate(283.577 237.144) rotate(90) scale(205.082 283.577)">
<stop stop-color="#0660A6" stop-opacity="0.31"/>
<stop offset="1" stop-color="white" stop-opacity="0"/>
</radialGradient>
<radialGradient id="paint1_radial_0_52" cx="0" cy="0" r="1" gradientUnits="userSpaceOnUse" gradientTransform="translate(1518.79 257.612) rotate(90) scale(257.612)">
<stop stop-color="#0660A6" stop-opacity="0.42"/>
<stop offset="1" stop-color="white" stop-opacity="0"/>
</radialGradient>
<linearGradient id="paint2_linear_0_52" x1="334.714" y1="186.24" x2="552.942" y2="361.34" gradientUnits="userSpaceOnUse">
<stop stop-color="#B4CFE4"/>
<stop offset="1" stop-color="white" stop-opacity="0"/>
</linearGradient>
<linearGradient id="paint3_linear_0_52" x1="609.759" y1="21.4398" x2="893.515" y2="249.117" gradientUnits="userSpaceOnUse">
<stop stop-color="#B4CFE4"/>
<stop offset="1" stop-color="white" stop-opacity="0"/>
</linearGradient>
<linearGradient id="paint4_linear_0_52" x1="198.753" y1="120.126" x2="504.614" y2="365.54" gradientUnits="userSpaceOnUse">
<stop stop-color="#B4CFE4"/>
<stop offset="1" stop-color="white" stop-opacity="0"/>
</linearGradient>
<linearGradient id="paint5_linear_0_52" x1="1255.56" y1="46.3894" x2="1503.84" y2="245.601" gradientUnits="userSpaceOnUse">
<stop stop-color="#B4CFE4"/>
<stop offset="1" stop-color="white" stop-opacity="0"/>
</linearGradient>
<linearGradient id="paint6_linear_0_52" x1="1345.19" y1="19.7105" x2="1721.94" y2="322.003" gradientUnits="userSpaceOnUse">
<stop stop-color="#B4CFE4"/>
<stop offset="1" stop-color="white" stop-opacity="0"/>
</linearGradient>
<clipPath id="clip0_0_52">
<rect x="254.981" y="77.5544" width="1302.42" height="224.072" rx="25" fill="white"/>
</clipPath>
</defs>
</svg>
