<svg width="44" height="20" viewBox="0 0 44 20" fill="none" xmlns="http://www.w3.org/2000/svg">
<g clip-path="url(#clip0_0_296)">
<path d="M20 2.67134V17.3287C20 18.8046 18.8046 20 17.3287 20H2.67134C1.19541 20 0 18.8046 0 17.3287V2.67134C0.00318776 1.19541 1.1986 0 2.67134 0H17.3287C18.8046 0 20 1.19541 20 2.67134Z" fill="#CCCCCC"/>
<path d="M0.914062 17.2462V2.74826C0.914062 1.73136 1.73332 0.912109 2.75021 0.912109H17.2577C18.2682 0.912109 19.0939 1.73136 19.0939 2.74826V17.2462C19.0939 18.2631 18.2682 19.0919 17.2577 19.0919H2.75021C1.73332 19.0919 0.914062 18.2631 0.914062 17.2462Z" fill="white"/>
<path d="M0.914062 17.2462V2.74826C0.914062 1.73136 1.73332 0.912109 2.75021 0.912109H17.2577C18.2682 0.912109 19.0939 1.73136 19.0939 2.74826V17.2462C19.0939 18.2631 18.2682 19.0919 17.2577 19.0919H2.75021C1.73332 19.0919 0.914062 18.2631 0.914062 17.2462Z" fill="white"/>
<path d="M0.914062 10.0004V2.74826C0.914062 1.73136 1.73332 0.912109 2.75021 0.912109H17.2577C18.2682 0.912109 19.0939 1.73136 19.0939 2.74826V10.0036H0.914062V10.0004Z" fill="#CF0821"/>
</g>
<path d="M29 7.5L34 12.5L39 7.5" stroke="white" stroke-width="1.66667" stroke-linecap="round" stroke-linejoin="round"/>
<defs>
<clipPath id="clip0_0_296">
<rect width="20" height="20" fill="white"/>
</clipPath>
</defs>
</svg>
