<svg width="20" height="23" viewBox="0 0 20 23" fill="none" xmlns="http://www.w3.org/2000/svg">
<path d="M16 11.5455C16 16.6364 9.5 21 9.5 21C9.5 21 3 16.6364 3 11.5455C3 9.80949 3.68482 8.14463 4.90381 6.91712C6.12279 5.68961 7.77609 5 9.5 5C11.2239 5 12.8772 5.68961 14.0962 6.91712C15.3152 8.14463 16 9.80949 16 11.5455Z" stroke="#333333" stroke-linecap="round" stroke-linejoin="round"/>
<path d="M9.5 14C10.8807 14 12 12.8807 12 11.5C12 10.1193 10.8807 9 9.5 9C8.11929 9 7 10.1193 7 11.5C7 12.8807 8.11929 14 9.5 14Z" stroke="#333333" stroke-linecap="round" stroke-linejoin="round"/>
</svg>
