<svg width="20" height="20" viewBox="0 0 20 20" fill="none" xmlns="http://www.w3.org/2000/svg">
<path d="M9.99219 0.40332C14.7135 0.642699 18.4761 4.50647 18.5586 9.26758C18.175 9.05401 17.761 8.91522 17.3379 8.85059C17.3083 8.45216 17.2514 8.06141 17.165 7.68164C16.6767 7.44815 15.8353 7.13297 14.7236 6.85645C14.8596 7.63636 14.932 8.45905 14.9385 9.30664C14.6751 9.46098 14.4271 9.65201 14.2012 9.87793L13.708 10.3701C13.7288 10.0613 13.7422 9.74641 13.7422 9.42676C13.7422 8.42075 13.6357 7.4631 13.4473 6.58496C12.4624 6.40569 11.3372 6.27236 10.1084 6.2373V11.9824C10.8653 11.9611 11.5839 11.9033 12.2559 11.8213L10.9307 13.1475C10.6615 13.1636 10.3871 13.1761 10.1084 13.1836V13.9697L9.78418 14.2939C9.37445 14.7037 9.08348 15.1872 8.90918 15.7012V13.1855C7.76168 13.1552 6.70116 13.0353 5.75098 12.8682C5.97682 13.7059 6.28099 14.4584 6.64355 15.0938C7.24821 16.1531 7.97442 16.8266 8.72266 17.1084C8.75178 17.5691 8.86829 18.0251 9.07129 18.4502C4.29338 18.2124 0.492294 14.2637 0.492188 9.42676C0.492399 4.43699 4.53757 0.391813 9.52734 0.391602L9.99219 0.40332ZM2.06934 11.832C2.7295 13.8803 4.20934 15.5606 6.12305 16.4854C5.93692 16.2359 5.7618 15.9692 5.60156 15.6885C5.0989 14.8076 4.70612 13.7565 4.4502 12.5967C3.48209 12.3599 2.67592 12.0854 2.06934 11.832ZM8.90918 6.23535C7.6798 6.27087 6.56491 6.41584 5.59961 6.60938C5.41452 7.48071 5.31253 8.43025 5.3125 9.42676C5.31251 10.1817 5.37243 10.9095 5.48145 11.5967C6.47934 11.7981 7.63415 11.9496 8.90918 11.9854V6.23535ZM4.32129 6.91309C3.20652 7.22289 2.40183 7.57041 1.99707 7.7998C1.94965 7.82661 1.899 7.84262 1.84863 7.85547C1.74536 8.36288 1.69143 8.88886 1.69141 9.42676C1.69141 9.74025 1.71224 10.0496 1.74805 10.3535C1.77138 10.363 1.79583 10.3721 1.81836 10.3848C2.2367 10.6219 3.0715 10.9798 4.22754 11.2988C4.15255 10.6937 4.11231 10.0671 4.1123 9.42676C4.11233 8.55725 4.18524 7.71303 4.32129 6.91309ZM6.12207 2.36719C4.43222 3.18383 3.08066 4.59034 2.33301 6.31836C2.92489 6.07767 3.69518 5.82105 4.61133 5.59961C4.86003 4.69842 5.19543 3.87562 5.60156 3.16406C5.76181 2.88334 5.93594 2.61659 6.12207 2.36719ZM12.9316 2.36816C13.1176 2.61742 13.293 2.88353 13.4531 3.16406C13.8526 3.86391 14.1823 4.67187 14.4297 5.55566C15.3003 5.74612 16.0525 5.96876 16.6592 6.18359C15.9004 4.51775 14.5771 3.16327 12.9316 2.36816ZM8.90918 1.68066C8.09532 1.91515 7.29854 2.61226 6.64355 3.75977C6.37894 4.22346 6.14495 4.74932 5.9502 5.3252C6.84575 5.1729 7.83878 5.06339 8.90918 5.03418V1.68066ZM10.1084 5.03711C11.1814 5.0662 12.1851 5.1653 13.0967 5.30762C12.9031 4.73878 12.672 4.21862 12.4102 3.75977C11.7452 2.59503 10.9351 1.89369 10.1084 1.66992V5.03711Z" fill="#333333"/>
<path fill-rule="evenodd" clip-rule="evenodd" d="M12.5616 14.4112L11.2316 15.7423C10.6218 16.3523 10.6219 17.3413 11.2316 17.9513C11.8416 18.5612 12.8305 18.5611 13.4406 17.9513L14.7706 16.6202L15.6193 17.4689L14.2902 18.7999L14.0792 18.9903C12.9944 19.8748 11.3941 19.8109 10.3829 18.7999L10.1935 18.5899C9.30891 17.5051 9.37194 15.9049 10.3829 14.8937L11.713 13.5626L12.5616 14.4112ZM14.8019 10.4747C15.8805 9.39646 17.6295 9.39644 18.7081 10.4747C19.7866 11.5533 19.7865 13.3023 18.7081 14.381L17.1359 15.9523L16.2872 15.1036L17.8595 13.5323C18.4692 12.9223 18.4694 11.9333 17.8595 11.3233C17.2495 10.7137 16.2605 10.7137 15.6505 11.3233L14.0782 12.8946L13.2296 12.046L14.8019 10.4747Z" fill="#333333"/>
<path d="M12.6953 16.316L15.9908 13.0205" stroke="#333333" stroke-width="1.2"/>
</svg>
