<svg width="16" height="16" viewBox="0 0 16 16" fill="none" xmlns="http://www.w3.org/2000/svg">
<path d="M12.1246 10.4968C12.0256 10.5054 11.9272 10.4744 11.8511 10.4105C11.7749 10.3466 11.7273 10.2551 11.7186 10.1561L11.2424 4.71853L4.75385 12.4513C4.68992 12.5275 4.59835 12.5751 4.49927 12.5838C4.40019 12.5925 4.30173 12.5614 4.22554 12.4975C4.14935 12.4336 4.10168 12.342 4.09301 12.2429C4.08434 12.1438 4.11539 12.0454 4.17932 11.9692L10.6679 4.23644L5.23017 4.71173C5.13313 4.71678 5.03793 4.68396 4.96461 4.6202C4.89129 4.55644 4.84558 4.46671 4.83711 4.36992C4.82864 4.27312 4.85808 4.17682 4.91921 4.10129C4.98034 4.02577 5.0684 3.97692 5.16484 3.96505L11.5046 3.41039C11.6036 3.40179 11.702 3.43284 11.7781 3.49672C11.8542 3.56059 11.9019 3.65208 11.9106 3.75107L12.4652 10.0908C12.4738 10.1898 12.4428 10.2882 12.3789 10.3643C12.315 10.4404 12.2236 10.4881 12.1246 10.4968Z" fill="#3D3D3D"/>
</svg>
